<mxfile host="app.diagrams.net" agent="Mozilla/5.0 (Windows NT 10.0; Win64; x64) AppleWebKit/537.36 (KHTML, like Gecko) Chrome/133.0.0.0 Safari/537.36 OPR/118.0.0.0" version="27.0.9">
  <diagram name="Страница — 1" id="Mi2REexs_LlZiIaYETNl">
    <mxGraphModel dx="1385" dy="788" grid="1" gridSize="10" guides="1" tooltips="1" connect="1" arrows="1" fold="1" page="1" pageScale="1" pageWidth="827" pageHeight="1169" math="0" shadow="0">
      <root>
        <mxCell id="0" />
        <mxCell id="1" parent="0" />
        <mxCell id="mFkYTAQK1a_ADUQJKqqh-9" style="edgeStyle=orthogonalEdgeStyle;rounded=0;orthogonalLoop=1;jettySize=auto;html=1;entryX=0;entryY=0.5;entryDx=0;entryDy=0;" edge="1" parent="1" source="mFkYTAQK1a_ADUQJKqqh-1" target="mFkYTAQK1a_ADUQJKqqh-8">
          <mxGeometry relative="1" as="geometry" />
        </mxCell>
        <mxCell id="mFkYTAQK1a_ADUQJKqqh-19" style="edgeStyle=orthogonalEdgeStyle;rounded=0;orthogonalLoop=1;jettySize=auto;html=1;entryX=0;entryY=0.5;entryDx=0;entryDy=0;" edge="1" parent="1" source="mFkYTAQK1a_ADUQJKqqh-1" target="mFkYTAQK1a_ADUQJKqqh-15">
          <mxGeometry relative="1" as="geometry" />
        </mxCell>
        <mxCell id="mFkYTAQK1a_ADUQJKqqh-21" style="edgeStyle=orthogonalEdgeStyle;rounded=0;orthogonalLoop=1;jettySize=auto;html=1;entryX=0.5;entryY=1;entryDx=0;entryDy=0;" edge="1" parent="1" source="mFkYTAQK1a_ADUQJKqqh-1" target="mFkYTAQK1a_ADUQJKqqh-10">
          <mxGeometry relative="1" as="geometry" />
        </mxCell>
        <mxCell id="mFkYTAQK1a_ADUQJKqqh-22" style="edgeStyle=orthogonalEdgeStyle;rounded=0;orthogonalLoop=1;jettySize=auto;html=1;" edge="1" parent="1" source="mFkYTAQK1a_ADUQJKqqh-1" target="mFkYTAQK1a_ADUQJKqqh-20">
          <mxGeometry relative="1" as="geometry" />
        </mxCell>
        <mxCell id="mFkYTAQK1a_ADUQJKqqh-1" value="User" style="shape=umlActor;verticalLabelPosition=bottom;verticalAlign=top;html=1;outlineConnect=0;" vertex="1" parent="1">
          <mxGeometry x="40" y="410" width="30" height="60" as="geometry" />
        </mxCell>
        <mxCell id="mFkYTAQK1a_ADUQJKqqh-7" style="edgeStyle=orthogonalEdgeStyle;rounded=0;orthogonalLoop=1;jettySize=auto;html=1;" edge="1" parent="1" source="mFkYTAQK1a_ADUQJKqqh-4" target="mFkYTAQK1a_ADUQJKqqh-6">
          <mxGeometry relative="1" as="geometry" />
        </mxCell>
        <mxCell id="mFkYTAQK1a_ADUQJKqqh-26" style="edgeStyle=orthogonalEdgeStyle;rounded=0;orthogonalLoop=1;jettySize=auto;html=1;entryX=0.5;entryY=1;entryDx=0;entryDy=0;" edge="1" parent="1" source="mFkYTAQK1a_ADUQJKqqh-4" target="mFkYTAQK1a_ADUQJKqqh-25">
          <mxGeometry relative="1" as="geometry" />
        </mxCell>
        <mxCell id="mFkYTAQK1a_ADUQJKqqh-28" style="edgeStyle=orthogonalEdgeStyle;rounded=0;orthogonalLoop=1;jettySize=auto;html=1;" edge="1" parent="1" source="mFkYTAQK1a_ADUQJKqqh-4" target="mFkYTAQK1a_ADUQJKqqh-27">
          <mxGeometry relative="1" as="geometry" />
        </mxCell>
        <mxCell id="mFkYTAQK1a_ADUQJKqqh-31" style="edgeStyle=orthogonalEdgeStyle;rounded=0;orthogonalLoop=1;jettySize=auto;html=1;entryX=0.5;entryY=0;entryDx=0;entryDy=0;" edge="1" parent="1" source="mFkYTAQK1a_ADUQJKqqh-4" target="mFkYTAQK1a_ADUQJKqqh-30">
          <mxGeometry relative="1" as="geometry" />
        </mxCell>
        <mxCell id="mFkYTAQK1a_ADUQJKqqh-32" style="edgeStyle=orthogonalEdgeStyle;rounded=0;orthogonalLoop=1;jettySize=auto;html=1;entryX=1;entryY=0.5;entryDx=0;entryDy=0;" edge="1" parent="1" source="mFkYTAQK1a_ADUQJKqqh-4" target="mFkYTAQK1a_ADUQJKqqh-29">
          <mxGeometry relative="1" as="geometry" />
        </mxCell>
        <mxCell id="mFkYTAQK1a_ADUQJKqqh-4" value="&lt;font style=&quot;color: light-dark(rgb(0, 0, 0), rgb(255, 255, 255));&quot;&gt;Admin&lt;/font&gt;" style="shape=umlActor;verticalLabelPosition=bottom;verticalAlign=top;html=1;outlineConnect=0;fillColor=#1ba1e2;fontColor=#ffffff;strokeColor=#006EAF;" vertex="1" parent="1">
          <mxGeometry x="720" y="410" width="30" height="60" as="geometry" />
        </mxCell>
        <mxCell id="mFkYTAQK1a_ADUQJKqqh-6" value="Database" style="shape=cylinder3;whiteSpace=wrap;html=1;boundedLbl=1;backgroundOutline=1;size=15;" vertex="1" parent="1">
          <mxGeometry x="750" y="280" width="60" height="80" as="geometry" />
        </mxCell>
        <mxCell id="mFkYTAQK1a_ADUQJKqqh-11" value="" style="edgeStyle=orthogonalEdgeStyle;rounded=0;orthogonalLoop=1;jettySize=auto;html=1;dashed=1;dashPattern=1 4;" edge="1" parent="1" source="mFkYTAQK1a_ADUQJKqqh-8" target="mFkYTAQK1a_ADUQJKqqh-10">
          <mxGeometry relative="1" as="geometry" />
        </mxCell>
        <mxCell id="mFkYTAQK1a_ADUQJKqqh-13" value="include" style="edgeLabel;html=1;align=center;verticalAlign=middle;resizable=0;points=[];" vertex="1" connectable="0" parent="mFkYTAQK1a_ADUQJKqqh-11">
          <mxGeometry x="0.2" y="-2" relative="1" as="geometry">
            <mxPoint as="offset" />
          </mxGeometry>
        </mxCell>
        <mxCell id="mFkYTAQK1a_ADUQJKqqh-8" value="authorization" style="ellipse;whiteSpace=wrap;html=1;" vertex="1" parent="1">
          <mxGeometry x="110" y="295" width="120" height="50" as="geometry" />
        </mxCell>
        <mxCell id="mFkYTAQK1a_ADUQJKqqh-10" value="CRUD: human" style="ellipse;whiteSpace=wrap;html=1;" vertex="1" parent="1">
          <mxGeometry x="400" y="295" width="120" height="50" as="geometry" />
        </mxCell>
        <mxCell id="mFkYTAQK1a_ADUQJKqqh-17" style="edgeStyle=orthogonalEdgeStyle;rounded=0;orthogonalLoop=1;jettySize=auto;html=1;entryX=1;entryY=0.5;entryDx=0;entryDy=0;dashed=1;dashPattern=1 4;" edge="1" parent="1" source="mFkYTAQK1a_ADUQJKqqh-15" target="mFkYTAQK1a_ADUQJKqqh-10">
          <mxGeometry relative="1" as="geometry" />
        </mxCell>
        <mxCell id="mFkYTAQK1a_ADUQJKqqh-18" value="extends" style="edgeLabel;html=1;align=center;verticalAlign=middle;resizable=0;points=[];" vertex="1" connectable="0" parent="mFkYTAQK1a_ADUQJKqqh-17">
          <mxGeometry x="0.125" y="-4" relative="1" as="geometry">
            <mxPoint as="offset" />
          </mxGeometry>
        </mxCell>
        <mxCell id="mFkYTAQK1a_ADUQJKqqh-15" value="data filtering" style="ellipse;whiteSpace=wrap;html=1;" vertex="1" parent="1">
          <mxGeometry x="260" y="360" width="120" height="50" as="geometry" />
        </mxCell>
        <mxCell id="mFkYTAQK1a_ADUQJKqqh-23" style="edgeStyle=orthogonalEdgeStyle;rounded=0;orthogonalLoop=1;jettySize=auto;html=1;dashed=1;dashPattern=1 4;" edge="1" parent="1" source="mFkYTAQK1a_ADUQJKqqh-20" target="mFkYTAQK1a_ADUQJKqqh-15">
          <mxGeometry relative="1" as="geometry" />
        </mxCell>
        <mxCell id="mFkYTAQK1a_ADUQJKqqh-24" value="include" style="edgeLabel;html=1;align=center;verticalAlign=middle;resizable=0;points=[];" vertex="1" connectable="0" parent="mFkYTAQK1a_ADUQJKqqh-23">
          <mxGeometry x="0.2824" y="-1" relative="1" as="geometry">
            <mxPoint as="offset" />
          </mxGeometry>
        </mxCell>
        <mxCell id="mFkYTAQK1a_ADUQJKqqh-20" value="report generation" style="ellipse;whiteSpace=wrap;html=1;" vertex="1" parent="1">
          <mxGeometry x="240" y="470" width="120" height="50" as="geometry" />
        </mxCell>
        <mxCell id="mFkYTAQK1a_ADUQJKqqh-25" value="add rows" style="ellipse;whiteSpace=wrap;html=1;" vertex="1" parent="1">
          <mxGeometry x="570" y="295" width="120" height="50" as="geometry" />
        </mxCell>
        <mxCell id="mFkYTAQK1a_ADUQJKqqh-27" value="create category table" style="ellipse;whiteSpace=wrap;html=1;" vertex="1" parent="1">
          <mxGeometry x="490" y="415" width="120" height="50" as="geometry" />
        </mxCell>
        <mxCell id="mFkYTAQK1a_ADUQJKqqh-33" style="edgeStyle=orthogonalEdgeStyle;rounded=0;orthogonalLoop=1;jettySize=auto;html=1;entryX=0;entryY=0.5;entryDx=0;entryDy=0;dashed=1;dashPattern=1 4;" edge="1" parent="1" source="mFkYTAQK1a_ADUQJKqqh-29" target="mFkYTAQK1a_ADUQJKqqh-30">
          <mxGeometry relative="1" as="geometry" />
        </mxCell>
        <mxCell id="mFkYTAQK1a_ADUQJKqqh-34" value="include" style="edgeLabel;html=1;align=center;verticalAlign=middle;resizable=0;points=[];" vertex="1" connectable="0" parent="mFkYTAQK1a_ADUQJKqqh-33">
          <mxGeometry x="-0.0815" y="-3" relative="1" as="geometry">
            <mxPoint as="offset" />
          </mxGeometry>
        </mxCell>
        <mxCell id="mFkYTAQK1a_ADUQJKqqh-29" value="data export" style="ellipse;whiteSpace=wrap;html=1;" vertex="1" parent="1">
          <mxGeometry x="510" y="500" width="120" height="50" as="geometry" />
        </mxCell>
        <mxCell id="mFkYTAQK1a_ADUQJKqqh-30" value="delete table" style="ellipse;whiteSpace=wrap;html=1;" vertex="1" parent="1">
          <mxGeometry x="630" y="600" width="120" height="50" as="geometry" />
        </mxCell>
      </root>
    </mxGraphModel>
  </diagram>
</mxfile>
